<?xml version="1.0" standalone="no"?>
<!DOCTYPE svg PUBLIC "-//W3C//DTD SVG 20010904//EN"
 "http://www.w3.org/TR/2001/REC-SVG-20010904/DTD/svg10.dtd">
<svg version="1.0" xmlns="http://www.w3.org/2000/svg"
 width="50px" height="50px" viewBox="0 0 50 50"
 preserveAspectRatio="xMidYMid meet">

<g transform="translate(0,50) scale(0.1,-0.1)"
fill="black" stroke="black">
<path d="M148 392 c-77 -45 -98 -62 -98 -79 0 -14 6 -23 15 -23 22 0 22 -186
-1 -218 l-15 -22 201 0 201 0 -15 22 c-23 33 -23 218 0 218 10 0 14 7 12 22
-2 17 -29 39 -98 80 -52 32 -97 58 -100 58 -3 0 -49 -26 -102 -58z m199 -8
c51 -31 93 -63 93 -70 0 -20 -5 -19 -95 36 -46 28 -88 50 -95 50 -7 0 -49 -22
-95 -50 -91 -55 -95 -56 -95 -36 0 10 171 124 189 126 3 0 47 -25 98 -56z
m-12 -40 l75 -45 0 -75 c0 -63 -3 -74 -17 -75 -17 -1 -17 -2 0 -6 27 -7 20
-23 -10 -24 l-28 -2 28 -4 c51 -8 28 -24 -30 -21 l-58 3 -5 60 -5 60 -35 0
-35 0 -5 -60 -5 -60 -57 -3 c-36 -2 -58 1 -58 8 0 5 12 11 28 11 l27 2 -27 4
c-31 5 -38 22 -10 24 16 1 16 2 0 6 -15 4 -18 16 -18 78 l0 74 73 45 c39 24
77 45 84 45 7 1 46 -20 88 -45z m-55 -194 l0 -60 -30 0 -30 0 0 60 0 60 30 0
30 0 0 -60z m140 -80 c0 -6 -63 -10 -170 -10 -107 0 -170 4 -170 10 0 6 63 10
170 10 107 0 170 -4 170 -10z"/>
<path d="M228 243 c12 -2 32 -2 45 0 12 2 2 4 -23 4 -25 0 -35 -2 -22 -4z"/>
</g>
</svg>
