<?xml version="1.0" standalone="no"?>
<!DOCTYPE svg PUBLIC "-//W3C//DTD SVG 20010904//EN"
 "http://www.w3.org/TR/2001/REC-SVG-20010904/DTD/svg10.dtd">
<svg version="1.0" xmlns="http://www.w3.org/2000/svg"
 width="512px" height="512px" viewBox="0 0 512 512"
 preserveAspectRatio="xMidYMid meet">

<g transform="translate(0,512) scale(0.1,-0.1)"
fill="black" stroke="black">
<path d="M2084 4630 c-219 -33 -388 -180 -460 -400 -15 -48 -18 -103 -22 -422
l-4 -366 -326 -4 c-279 -4 -335 -7 -382 -22 -185 -60 -308 -177 -376 -356
l-29 -75 0 -420 c0 -458 0 -454 61 -579 34 -70 117 -163 186 -209 29 -19 87
-47 128 -63 l75 -28 332 -4 332 -4 3 -371 c3 -371 3 -372 29 -443 65 -179 216
-318 395 -366 37 -10 171 -13 544 -13 l495 0 71 26 c174 64 300 196 363 379
12 36 16 118 19 417 l3 371 332 5 c358 4 362 5 484 64 78 38 199 158 236 237
63 128 62 123 62 571 0 369 -2 416 -18 469 -60 195 -201 337 -392 394 -39 12
-125 16 -377 19 l-326 5 -4 366 c-5 402 -6 409 -70 537 -41 80 -145 183 -228
225 -126 64 -121 63 -625 66 -253 1 -483 -1 -511 -6z m1039 -182 c80 -38 160
-117 200 -197 l32 -66 0 -691 0 -691 -30 -49 c-19 -30 -49 -60 -79 -79 l-49
-30 -641 -5 c-626 -5 -642 -5 -693 -26 -75 -31 -145 -86 -186 -146 -66 -97
-70 -117 -75 -386 l-4 -243 -332 3 -331 3 -66 32 c-80 40 -159 120 -197 200
-27 57 -27 60 -30 311 l-3 252 280 0 281 0 0 80 0 80 -280 0 -280 0 0 80 0 80
600 0 600 0 0 80 0 80 -562 0 -563 1 52 49 c29 26 79 61 110 77 l58 28 693 3
692 3 0 79 0 80 -280 0 -281 0 3 373 3 372 27 57 c31 68 105 149 166 185 88
52 91 52 617 50 l490 -2 58 -27z m1128 -1205 c80 -40 159 -120 197 -200 27
-57 27 -60 30 -310 l3 -253 -280 0 -281 0 0 -80 0 -80 280 0 280 0 0 -80 0
-80 -600 0 -600 0 0 -80 0 -80 562 0 562 0 -35 -36 c-47 -49 -114 -89 -178
-108 -48 -14 -142 -16 -723 -16 l-668 0 0 -80 0 -80 280 0 281 0 -3 -372 -3
-373 -32 -66 c-39 -80 -120 -159 -200 -197 l-58 -27 -505 0 -505 0 -66 32
c-80 39 -159 120 -197 200 l-27 58 0 691 0 691 30 49 c19 30 49 60 79 79 l49
30 641 5 c713 6 675 2 784 77 60 41 115 111 145 186 19 47 21 77 25 295 l4
243 332 -3 331 -3 66 -32z"/>
</g>
</svg>
