<?xml version="1.0" standalone="no"?>
<!DOCTYPE svg PUBLIC "-//W3C//DTD SVG 20010904//EN"
 "http://www.w3.org/TR/2001/REC-SVG-20010904/DTD/svg10.dtd">
<svg version="1.0" xmlns="http://www.w3.org/2000/svg"
 width="50px" height="50px" viewBox="0 0 50 50"
 preserveAspectRatio="xMidYMid meet">

<g transform="translate(0,50) scale(0.1,-0.1)"
fill="black" stroke="black">
<path d="M86 414 c-23 -23 -23 -305 0 -328 23 -23 305 -23 328 0 23 23 23 305
0 328 -23 23 -305 23 -328 0z m322 -6 c17 -17 17 -299 0 -316 -17 -17 -299
-17 -316 0 -17 17 -17 299 0 316 17 17 299 17 316 0z"/>
<path d="M111 386 c-8 -9 -11 -57 -9 -147 l3 -134 145 0 145 0 3 134 c2 90 -1
138 -9 147 -9 11 -42 14 -139 14 -97 0 -130 -3 -139 -14z m274 -136 l0 -135
-135 0 -135 0 -3 124 c-1 69 0 131 2 138 4 11 35 13 138 11 l133 -3 0 -135z"/>
<path d="M200 345 c-11 -14 -8 -21 25 -55 l39 -40 -39 -40 c-33 -34 -36 -41
-25 -55 12 -14 19 -11 62 32 26 26 48 54 48 63 0 9 -22 37 -48 63 -43 43 -50
46 -62 32z m60 -50 l44 -45 -44 -45 c-24 -25 -49 -45 -54 -45 -6 0 10 20 34
45 l44 45 -44 45 c-24 25 -40 45 -34 45 5 0 30 -20 54 -45z"/>
</g>
</svg>
